<svg width="73" height="72" viewBox="0 0 73 72" fill="none" xmlns="http://www.w3.org/2000/svg">
<g filter="url(#filter0_d_0_370)">
<rect x="9.49826" y="24.761" width="40.0735" height="37.402" rx="7" transform="rotate(-28.7302 9.49826 24.761)" fill="url(#paint0_linear_0_370)" shape-rendering="crispEdges"/>
</g>
<path fill-rule="evenodd" clip-rule="evenodd" d="M27.4472 24.8165L35.015 20.7163C37.974 19.113 41.0937 20.0919 42.7875 23.146L46.6967 30.1946C48.3862 33.241 47.5436 36.3678 44.5846 37.9711L37.0168 42.0713C34.0578 43.6746 30.9288 42.6995 29.2393 39.6532L25.3301 32.6046C23.6363 29.5505 24.4882 26.4198 27.4472 24.8165ZM40.9594 32.9901C41.1776 32.8719 41.3336 32.6415 41.341 32.3682C41.3651 31.9614 41.0402 31.6213 40.6212 31.6026L36.4994 31.4572L34.2884 27.4705C34.0927 27.1176 33.6414 26.9795 33.2748 27.1781C32.917 27.372 32.7834 27.827 32.9791 28.1799L35.3959 32.5376C35.5203 32.7619 35.7621 32.9113 36.025 32.9147L40.5663 33.0797C40.7094 33.0919 40.8459 33.0516 40.9594 32.9901Z" fill="white"/>
<defs>
<filter id="filter0_d_0_370" x="0" y="0" width="72.1153" height="71.0566" filterUnits="userSpaceOnUse" color-interpolation-filters="sRGB">
<feFlood flood-opacity="0" result="BackgroundImageFix"/>
<feColorMatrix in="SourceAlpha" type="matrix" values="0 0 0 0 0 0 0 0 0 0 0 0 0 0 0 0 0 0 127 0" result="hardAlpha"/>
<feOffset dy="4"/>
<feGaussianBlur stdDeviation="6"/>
<feComposite in2="hardAlpha" operator="out"/>
<feColorMatrix type="matrix" values="0 0 0 0 0 0 0 0 0 0 0 0 0 0 0 0 0 0 0.12 0"/>
<feBlend mode="normal" in2="BackgroundImageFix" result="effect1_dropShadow_0_370"/>
<feBlend mode="normal" in="SourceGraphic" in2="effect1_dropShadow_0_370" result="shape"/>
</filter>
<linearGradient id="paint0_linear_0_370" x1="9.49826" y1="42.2152" x2="48.6112" y2="42.4022" gradientUnits="userSpaceOnUse">
<stop stop-color="#AA80FF"/>
<stop offset="1" stop-color="#A071FF" stop-opacity="0.65"/>
</linearGradient>
</defs>
</svg>
